<svg width="35" height="24" fill="none" xmlns="http://www.w3.org/2000/svg"><rect width="35" height="24" rx="4" fill="#EBF3FA"/><path d="M14.974 16.083h-1.979l1.238-7.654h1.979l-1.238 7.654zm7.173-7.467a4.877 4.877 0 00-1.775-.325c-1.954 0-3.33 1.042-3.339 2.532-.016 1.099.986 1.71 1.735 2.076.765.375 1.026.619 1.026.953-.008.513-.619.749-1.189.749-.79 0-1.213-.122-1.857-.407l-.26-.123-.277 1.719c.464.211 1.32.399 2.207.407 2.076 0 3.428-1.026 3.444-2.614.008-.871-.52-1.539-1.66-2.084-.693-.35-1.117-.587-1.117-.945.008-.326.359-.66 1.14-.66a3.363 3.363 0 011.474.294l.18.081.268-1.653zm2.632 4.755l.79-2.141c-.008.016.162-.448.26-.733l.138.66s.375 1.832.457 2.214h-1.645zM27.22 8.43h-1.53c-.472 0-.831.139-1.035.635l-2.94 7.019h2.077l.416-1.148h2.54c.057.268.237 1.148.237 1.148h1.832L27.22 8.429zm-15.878 0l-1.938 5.218-.212-1.058c-.358-1.222-1.482-2.549-2.736-3.208l1.775 6.693h2.093l3.11-7.646h-2.092z" fill="#00579F"/><path d="M7.604 8.43H4.42l-.032.154c2.483.635 4.128 2.166 4.804 4.006L8.5 9.073c-.114-.49-.464-.628-.896-.644z" fill="#FAA61A"/></svg>