<svg width="874" height="775" fill="none" xmlns="http://www.w3.org/2000/svg"><path fill-rule="evenodd" clip-rule="evenodd" d="M431.717 0c79.939.132 139.959 64.963 208.468 106.144 76.837 46.188 178.803 67.413 215.963 148.984 38.031 83.483 8.668 182.389-26.383 267.165-33.046 79.927-90.673 146.83-163.856 192.95-69.734 43.947-152.225 66.656-234.192 57.902-76.783-8.202-134.337-64.444-200.454-104.326-74.099-44.697-171.834-64.714-209.177-142.764-38.552-80.577-22.424-180.29 16.038-260.91 35.911-75.272 115.444-113.088 184.623-159.691C289.078 60.77 351.732-.132 431.717 0z" fill="#F8F8FF"/></svg>