<svg width="598" height="595" fill="none" xmlns="http://www.w3.org/2000/svg"><path fill-rule="evenodd" clip-rule="evenodd" d="M284.577 4.082C345.611 6.857 410.53 6.69 458.855 44.061c47.703 36.89 58.246 100.99 80.48 157.032 24.082 60.703 73.246 120.629 54.494 183.183-18.796 62.699-92.032 87.141-146.445 123.551-51.944 34.758-100.815 75.379-162.807 83.383-67.77 8.75-142.352 4.64-196.53-36.986C34.371 512.982 15.24 441.79 3.387 375.161c-10.59-59.535 5.615-117.319 21.562-175.649C41.787 137.92 47.36 66.082 98.387 27.672c51.228-38.561 122.127-26.502 186.19-23.59z" fill="#F5F5FF"/></svg>