<svg width="33" height="32" fill="none" xmlns="http://www.w3.org/2000/svg"><rect x=".333" width="32" height="32" rx="16" fill="#F58F56"/><g clip-path="url(#clip0_1060_1389)"><path d="M23.775 9.525c-.41-.477-.955-.75-1.57-.682h-11.8c-1.227 0-2.25 1.16-2.046 2.388l1.637 10.23c.137 1.024 1.024 1.706 2.047 1.706h8.594c1.023 0 1.91-.75 2.046-1.705L24.32 11.23a2.246 2.246 0 00-.545-1.706zm-6.003 8.185c-.204-.204-.409-.34-.682-.409l.546-2.728-1.364-.273-.614 2.933c-.273.068-.546.273-.819.477l-3.41-3.342a6.793 6.793 0 019.617 0l-3.274 3.342z" fill="#fff"/></g><defs><clipPath id="clip0_1060_1389"><path fill="#fff" transform="translate(8.333 8)" d="M0 0h16v16H0z"/></clipPath></defs></svg>