<svg width="32" height="32" fill="none" xmlns="http://www.w3.org/2000/svg"><rect width="32" height="32" rx="16" fill="#B956F5"/><g clip-path="url(#clip0_1060_1383)"><path d="M16 8c-4.411 0-8 3.589-8 8s3.589 8 8 8 8-3.589 8-8-3.589-8-8-8zm3.805 12.138a.665.665 0 01-.943 0l-3.333-3.333a.663.663 0 01-.196-.472V12a.666.666 0 111.334 0v4.057l3.138 3.138c.26.261.26.682 0 .943z" fill="#fff"/></g><defs><clipPath id="clip0_1060_1383"><path fill="#fff" transform="translate(8 8)" d="M0 0h16v16H0z"/></clipPath></defs></svg>