<?xml version="1.0" encoding="utf-8"?><svg xmlns="http://www.w3.org/2000/svg" xmlns:xlink="http://www.w3.org/1999/xlink"><symbol viewBox="0 0 24 24" id="checkout" xmlns="http://www.w3.org/2000/svg"><path d="M12 20a8 8 0 100-16.001A8 8 0 0012 20zm0 2C6.477 22 2 17.523 2 12S6.477 2 12 2s10 4.477 10 10-4.477 10-10 10zm0-8a2 2 0 110-4 2 2 0 010 4z"/></symbol><symbol viewBox="0 0 16 16" id="clock" xmlns="http://www.w3.org/2000/svg"><path d="M8 0C3.589 0 0 3.589 0 8s3.589 8 8 8 8-3.589 8-8-3.589-8-8-8zm3.805 12.138a.665.665 0 01-.943 0L7.53 8.805a.664.664 0 01-.196-.472V4a.666.666 0 111.334 0v4.057l3.138 3.138c.26.261.26.682 0 .943z"/></symbol><symbol viewBox="0 0 24 24" id="close" xmlns="http://www.w3.org/2000/svg"><path d="M12 10.586l4.95-4.95 1.414 1.414-4.95 4.95 4.95 4.95-1.414 1.414-4.95-4.95-4.95 4.95-1.414-1.414 4.95-4.95-4.95-4.95L7.05 5.636l4.95 4.95z"/></symbol><symbol viewBox="0 0 20 20" id="emotion-happy" xmlns="http://www.w3.org/2000/svg"><path d="M10 18.333a8.333 8.333 0 110-16.666 8.333 8.333 0 110 16.666zm0-1.666a6.667 6.667 0 100-13.334 6.667 6.667 0 000 13.334zm-4.167-5.834H7.5a2.5 2.5 0 105 0h1.667a4.167 4.167 0 11-8.334 0zm.834-1.666a1.25 1.25 0 110-2.5 1.25 1.25 0 010 2.5zm6.666 0a1.25 1.25 0 110-2.5 1.25 1.25 0 010 2.5z"/></symbol><symbol viewBox="0 0 15 20" id="kcal" xmlns="http://www.w3.org/2000/svg"><path d="M9.417 0c-3.978 2.456-3.5 9.375-3.5 9.375s-1.75-.625-1.75-3.437C2.079 7.235.667 9.728.667 12.5c0 4.142 3.134 7.5 7 7.5s7-3.358 7-7.5c0-6.094-5.25-7.344-5.25-12.5zM8.282 17.416c-1.407.375-2.832-.542-3.182-2.049-.351-1.507.505-3.033 1.912-3.41 3.396-.906 3.821-2.953 3.821-2.953s1.694 7.278-2.551 8.412z"/></symbol><symbol viewBox="0 0 20 20" id="phone" xmlns="http://www.w3.org/2000/svg"><path d="M17.5 13.683v2.947a.833.833 0 01-.775.832c-.364.025-.662.038-.892.038C8.47 17.5 2.5 11.53 2.5 4.167c0-.23.013-.528.038-.892A.833.833 0 013.37 2.5h2.947a.417.417 0 01.415.375c.019.192.036.344.053.46a11.58 11.58 0 001.007 3.334.38.38 0 01-.123.473L5.871 8.427a10.872 10.872 0 005.703 5.703l1.284-1.795a.385.385 0 01.477-.124c1.054.5 2.178.84 3.333 1.004.116.017.269.035.459.053a.417.417 0 01.374.415H17.5z"/></symbol><symbol viewBox="0 0 20 20" id="route" xmlns="http://www.w3.org/2000/svg"><path d="M3.333 12.5V7.083a3.75 3.75 0 017.5 0v5.834a2.083 2.083 0 004.167 0V7.358a2.501 2.501 0 111.667 0v5.559a3.75 3.75 0 11-7.5 0V7.083a2.083 2.083 0 00-4.167 0V12.5h2.5l-3.333 4.167L.833 12.5h2.5zm12.5-6.667a.833.833 0 100-1.667.833.833 0 000 1.667z"/></symbol><symbol viewBox="0 0 17 16" id="weight" xmlns="http://www.w3.org/2000/svg"><path d="M15.775 1.525c-.41-.477-.955-.75-1.57-.682h-11.8C1.179.843.156 2.003.36 3.231l1.637 10.231c.137 1.023 1.024 1.705 2.047 1.705h8.594c1.023 0 1.91-.75 2.046-1.705L16.32 3.231a2.246 2.246 0 00-.545-1.706zM9.772 9.71c-.204-.204-.409-.34-.682-.409l.546-2.728L8.272 6.3l-.614 2.933c-.273.068-.546.273-.819.477L3.43 6.368a6.793 6.793 0 019.617 0L9.772 9.71z"/></symbol></svg>