<svg width="33" height="32" viewBox="0 0 33 32" fill="none" xmlns="http://www.w3.org/2000/svg">
<rect x="0.333252" width="32" height="32" rx="16" fill="#F58F56"/>
<g clip-path="url(#clip0_1060_1389)">
<path d="M23.7746 9.52534C23.3654 9.04789 22.8197 8.77503 22.2058 8.84326H10.4057C9.17796 8.84326 8.15483 10.0028 8.35946 11.2306L9.99647 21.4619C10.1329 22.485 11.0196 23.1671 12.0427 23.1671H20.637C21.6602 23.1671 22.5469 22.4168 22.6833 21.4619L24.3203 11.2306C24.3885 10.6167 24.1839 10.0028 23.7746 9.52534ZM17.7723 17.7104C17.5676 17.5058 17.363 17.3693 17.0902 17.3011L17.6359 14.5728L16.2717 14.3L15.6578 17.2329C15.385 17.3011 15.1121 17.5058 14.8393 17.7104L11.4289 14.3682C14.089 11.708 18.3862 11.708 21.0463 14.3682L17.7723 17.7104Z" fill="white"/>
</g>
<defs>
<clipPath id="clip0_1060_1389">
<rect width="16" height="16" fill="white" transform="translate(8.33325 8)"/>
</clipPath>
</defs>
</svg>
